<svg id="Layer_1" enable-background="new 0 0 512.007 512.007" height="512" viewBox="0 0 512.007 512.007" width="512" xmlns="http://www.w3.org/2000/svg"><g><g fill="#b59f89"><path d="m480.016 216.012c-5.87 0-11.521-3.241-14.323-8.848-3.952-7.903-.749-17.514 7.155-21.466l16-8c7.905-3.95 17.516-.748 21.466 7.156 3.952 7.903.749 17.514-7.155 21.466l-16 8c-2.297 1.147-4.738 1.692-7.143 1.692z"/><path d="m31.991 216.012c-2.404 0-4.846-.544-7.143-1.692l-16-8c-7.904-3.952-11.107-13.563-7.155-21.466 3.951-7.903 13.563-11.108 21.466-7.156l16 8c7.904 3.952 11.107 13.563 7.155 21.466-2.803 5.606-8.454 8.848-14.323 8.848z"/><path d="m285.553 222.342c-2.2 0-4.436-.456-6.571-1.42-7.226-3.261-14.956-4.914-22.979-4.914s-15.753 1.653-22.979 4.914c-8.054 3.635-17.53.051-21.165-8.002-3.635-8.055-.052-17.531 8.003-21.165 11.39-5.14 23.55-7.747 36.141-7.747s24.751 2.606 36.141 7.747c8.055 3.634 11.638 13.11 8.003 21.165-2.671 5.918-8.496 9.422-14.594 9.422z"/></g><path d="m226.163 296.579c-18.61 28.32-46.06 51.92-73.41 63.14-13.55 5.55-27.77 8.33-41.98 8.33-14.51 0-29.02-2.9-42.8-8.68-27.29-11.45-48.48-32.85-59.69-60.25-23.13-56.57 4.02-121.44 60.53-144.6 17.01-6.97 37.39-10.56 58.33-10.56 12.75 0 25.71 1.33 38.24 4.03 38.59 8.31 65.98 27.9 77.13 55.15 11.14 27.249 5.331 60.43-16.35 93.44z" fill="#e2e0e0"/><path d="m511.983 257.259c0 13.97-2.66 28.16-8.26 41.86-11.21 27.4-32.4 48.8-59.69 60.25-13.78 5.78-28.29 8.68-42.8 8.68-14.21 0-28.43-2.78-41.98-8.33-27.35-11.22-54.8-34.82-73.41-63.14-21.68-33.01-27.49-66.19-16.35-93.44 11.15-27.25 38.54-46.84 77.13-55.15 33.11-7.12 69.21-4.68 96.57 6.53 42.821 17.55 68.79 59.05 68.79 102.74z" fill="#e2e0e0"/><path d="m243.993 259.039c-3.59 12.31-9.55 24.94-17.83 37.54-18.61 28.32-46.06 51.92-73.41 63.14-13.55 5.55-27.77 8.33-41.98 8.33-4.01 0-8.03-.22-12.03-.67 10.18-1.12 20.26-3.67 29.99-7.66 27.35-11.22 54.8-34.82 73.41-63.14 21.68-33.01 27.49-66.19 16.35-93.44-11.16-27.25-38.54-46.84-77.14-55.15-8.57-1.85-17.34-3.05-26.12-3.63 3.94-.27 7.91-.4 11.91-.4 12.75 0 25.71 1.33 38.24 4.03 38.59 8.31 65.98 27.9 77.13 55.15.53 1.31 1.03 2.63 1.48 3.96 5.43 15.859 5.361 33.55 0 51.94z" fill="#cecccc"/><path d="m511.983 257.259c0 13.97-2.66 28.16-8.26 41.86-11.21 27.4-32.4 48.8-59.69 60.25-13.78 5.78-28.29 8.68-42.8 8.68-4 0-8.01-.22-11.99-.67 10.46-1.16 20.8-3.83 30.77-8.01 27.29-11.45 48.48-32.85 59.69-60.25 5.6-13.7 8.26-27.89 8.26-41.86 0-43.69-25.97-85.19-68.79-102.74-13.75-5.64-29.72-9.06-46.4-10.15 25.09-1.65 50.15 1.85 70.42 10.15 42.821 17.55 68.79 59.05 68.79 102.74z" fill="#cecccc"/><path d="m303.344 240.128c-1.901.674-3.962.996-6.101.895-8.827-.42-15.641-7.916-15.22-16.743.826-17.332 11.746-33.331 30.751-45.052 15.635-9.641 34.65-14.928 50.869-14.143 8.826.428 15.634 7.93 15.206 16.756-.427 8.826-7.928 15.635-16.756 15.207-9.718-.47-22.483 3.226-32.522 9.417-9.459 5.834-15.285 13.063-15.584 19.338-.32 6.687-4.701 12.219-10.643 14.325z" fill="#f4f4f4"/><path d="m37.252 248.783c-5.82-2.427-9.892-8.189-9.846-14.884.236-34.355 28.361-62.135 62.694-61.928 8.837.055 15.957 7.259 15.904 16.096s-7.26 15.956-16.096 15.904c-16.704-.101-30.387 13.424-30.502 30.149-.06 8.836-7.274 15.95-16.109 15.89-2.143-.017-4.184-.451-6.045-1.227z" fill="#f4f4f4"/></g></svg>